<svg width="785" height="589" viewBox="0 0 785 589" fill="none" xmlns="http://www.w3.org/2000/svg">
<path d="M519.869 440.912H263.4V169.956H519.869V440.912Z" fill="#AAE0FF"/>
<path d="M187.266 502H597.736C598.985 502 600 500.924 600 499.596C600 498.269 598.985 497.193 597.736 497.193H187.266C186.015 497.193 185 498.269 185 499.596C185 500.924 186.015 502 187.266 502Z" fill="#2D5B98"/>
<path d="M297.874 478.147C285.207 478.147 274.938 467.256 274.938 453.821V420.66H320.81V453.821C320.81 467.256 310.541 478.147 297.874 478.147" fill="#5896FA"/>
<path d="M274.938 497.193H272.396V445.721H274.938V497.193Z" fill="#0E0E0E"/>
<path d="M323.352 497.193H320.81V445.721H323.352V497.193Z" fill="#0E0E0E"/>
<path d="M303.899 497.193H301.356V445.721H303.899V497.193Z" fill="#0E0E0E"/>
<path d="M272.396 480.843V478.148H320.928V480.843H272.396Z" fill="#0E0E0E"/>
<path d="M333.595 365.873C336.363 370.103 330.791 373.748 329.924 379.609C329.056 385.469 335.386 388.768 328.673 396.442C324.537 401.169 321.047 394.891 317.686 402.135C314.325 409.379 316.973 410.6 313.195 413.206C306.609 417.75 296.533 407.708 299.921 400.471C303.31 393.235 310.165 393.883 306.994 387.929C303.822 381.975 302.642 379.411 308.112 376.351C314.881 372.565 320.845 376.043 321.39 370.504C321.935 364.964 329.933 360.281 333.595 365.873Z" fill="#FFCA59"/>
<path d="M304.659 420.328L303.52 420.089C308.857 391.48 326.55 371.446 326.728 371.248L327.571 372.096C327.395 372.292 309.929 392.08 304.659 420.328" fill="#0E0E0E"/>
<path d="M244.885 355.305C242.023 361.49 250.088 365.125 252.347 372.697C254.607 380.267 246.286 382.942 256.626 391.666C262.995 397.041 264.328 393.681 266.669 405.701C268.73 416.283 276.312 406.213 281.981 412.424C289.297 420.438 300.728 402.849 294.872 393.997C289.015 385.145 282.181 387.433 285.249 378.879C288.317 370.323 284.657 363.878 276.84 360.995C267.164 357.429 263.684 366.042 261.913 358.827C260.142 351.613 248.67 347.122 244.885 355.305Z" fill="#ED5A24"/>
<path d="M293.501 421.192C281.165 384.917 254.306 362.476 254.037 362.254L254.991 360.95C255.264 361.176 282.476 383.912 294.964 420.633L293.501 421.192Z" fill="#0E0E0E"/>
<path d="M425.211 216.731C425.211 274.189 381.292 320.768 327.116 320.768C272.939 320.768 229.02 274.189 229.02 216.731C229.02 159.272 272.939 112.693 327.116 112.693C381.292 112.693 425.211 159.272 425.211 216.731V216.731Z" stroke="#2E77E6" stroke-width="11.6408" stroke-miterlimit="10" stroke-dasharray="17.46 17.46"/>
<path d="M351.953 209.901C352.056 209.09 352.129 208.268 352.129 207.425C352.129 197.298 344.387 189.09 334.839 189.09C327.676 189.09 321.531 193.709 318.908 200.293C316.773 198.276 313.969 197.043 310.886 197.043C304.213 197.043 298.804 202.779 298.804 209.854H296.55C290.134 209.854 284.885 215.421 284.885 222.225C284.885 229.03 290.134 234.597 296.55 234.597H351.092C357.507 234.597 362.756 229.03 362.756 222.225C362.756 215.73 357.968 210.375 351.953 209.901" fill="white"/>
<path d="M362.681 344.477H289.657C287.199 344.477 285.207 342.364 285.207 339.758V274.784C285.207 272.178 287.199 270.065 289.657 270.065H362.681C365.138 270.065 367.13 272.178 367.13 274.784V339.758C367.13 342.364 365.138 344.477 362.681 344.477" fill="#5896FA"/>
<path d="M350.971 314.996H301.584C299.968 314.996 298.646 313.592 298.646 311.879C298.646 310.165 299.968 308.763 301.584 308.763H350.971C352.586 308.763 353.91 310.165 353.91 311.879C353.91 313.592 352.586 314.996 350.971 314.996Z" fill="white"/>
<path d="M350.971 325.032H301.584C299.968 325.032 298.646 323.63 298.646 321.916C298.646 320.202 299.968 318.799 301.584 318.799H350.971C352.586 318.799 353.91 320.202 353.91 321.916C353.91 323.63 352.586 325.032 350.971 325.032Z" fill="white"/>
<path d="M310.806 322.193C310.806 322.798 310.343 323.289 309.772 323.289C309.2 323.289 308.737 322.798 308.737 322.193C308.737 321.587 309.2 321.096 309.772 321.096C310.343 321.096 310.806 321.587 310.806 322.193Z" fill="#80B2FF"/>
<path d="M314.353 322.193C314.353 322.798 313.89 323.289 313.318 323.289C312.747 323.289 312.284 322.798 312.284 322.193C312.284 321.587 312.747 321.096 313.318 321.096C313.89 321.096 314.353 321.587 314.353 322.193Z" fill="#80B2FF"/>
<path d="M317.899 322.193C317.899 322.798 317.436 323.289 316.865 323.289C316.294 323.289 315.83 322.798 315.83 322.193C315.83 321.587 316.294 321.096 316.865 321.096C317.436 321.096 317.899 321.587 317.899 322.193Z" fill="#80B2FF"/>
<path d="M321.446 322.193C321.446 322.798 320.983 323.289 320.412 323.289C319.841 323.289 319.377 322.798 319.377 322.193C319.377 321.587 319.841 321.096 320.412 321.096C320.983 321.096 321.446 321.587 321.446 322.193Z" fill="#80B2FF"/>
<path d="M324.994 322.193C324.994 322.798 324.53 323.289 323.959 323.289C323.388 323.289 322.925 322.798 322.925 322.193C322.925 321.587 323.388 321.096 323.959 321.096C324.53 321.096 324.994 321.587 324.994 322.193Z" fill="#80B2FF"/>
<path d="M328.54 322.193C328.54 322.798 328.077 323.289 327.506 323.289C326.934 323.289 326.471 322.798 326.471 322.193C326.471 321.587 326.934 321.096 327.506 321.096C328.077 321.096 328.54 321.587 328.54 322.193Z" fill="#80B2FF"/>
<path d="M332.087 322.193C332.087 322.798 331.624 323.289 331.053 323.289C330.482 323.289 330.018 322.798 330.018 322.193C330.018 321.587 330.482 321.096 331.053 321.096C331.624 321.096 332.087 321.587 332.087 322.193Z" fill="#80B2FF"/>
<path d="M335.634 322.193C335.634 322.798 335.171 323.289 334.6 323.289C334.028 323.289 333.565 322.798 333.565 322.193C333.565 321.587 334.028 321.096 334.6 321.096C335.171 321.096 335.634 321.587 335.634 322.193Z" fill="#80B2FF"/>
<path d="M339.181 322.193C339.181 322.798 338.718 323.289 338.147 323.289C337.575 323.289 337.112 322.798 337.112 322.193C337.112 321.587 337.575 321.096 338.147 321.096C338.718 321.096 339.181 321.587 339.181 322.193Z" fill="#80B2FF"/>
<path d="M337.646 288.001C337.646 294.652 332.564 300.042 326.294 300.042C320.024 300.042 314.941 294.652 314.941 288.001C314.941 281.352 320.024 275.962 326.294 275.962C332.564 275.962 337.646 281.352 337.646 288.001Z" fill="white"/>
<path d="M326.311 287.518C327.419 287.518 328.442 286.945 329.096 286.071C329.579 285.437 329.863 284.624 329.863 283.718C329.863 281.639 328.272 279.921 326.311 279.921C324.321 279.921 322.729 281.639 322.729 283.718C322.729 284.624 323.013 285.437 323.497 286.071C324.151 286.945 325.173 287.518 326.311 287.518Z" fill="#005CEA"/>
<path d="M332.603 294.285C332.603 296.682 319.983 296.682 319.983 294.285L319.987 291.492C320.486 287.673 331.577 287.512 332.605 291.492L332.603 294.285Z" fill="#005CEA"/>
<path d="M303.074 322.454V323.093C303.074 323.209 302.982 323.289 302.873 323.289C302.765 323.289 302.688 323.209 302.688 323.093V322.454C302.58 322.39 302.503 322.274 302.503 322.127C302.503 321.914 302.673 321.734 302.873 321.734C303.074 321.734 303.244 321.914 303.244 322.127C303.244 322.274 303.166 322.39 303.074 322.454ZM302.134 321.174C302.134 320.75 302.38 320.365 302.877 320.365C303.375 320.365 303.63 320.726 303.63 321.174V321.341H302.134V321.174ZM304.034 321.341V321.174C304.034 320.499 303.515 319.949 302.877 319.949C302.24 319.949 301.721 320.499 301.721 321.174V321.341H301.546V323.552C301.546 323.933 304.217 323.933 304.217 323.552V321.341H304.034" fill="#5896FA"/>
<path d="M302.88 311.652C303.114 311.652 303.33 311.532 303.468 311.348C303.57 311.214 303.63 311.043 303.63 310.851C303.63 310.413 303.294 310.05 302.88 310.05C302.46 310.05 302.125 310.413 302.125 310.851C302.125 311.043 302.185 311.214 302.287 311.348C302.424 311.532 302.64 311.652 302.88 311.652Z" fill="#5896FA"/>
<path d="M304.208 313.081C304.208 313.586 301.531 313.586 301.531 313.081L301.546 312.492C301.651 311.685 303.992 311.652 304.209 312.492L304.208 313.081Z" fill="#5896FA"/>
<path d="M320.179 312.792H309.356C308.882 312.792 308.494 312.382 308.494 311.88C308.494 311.375 308.882 310.965 309.356 310.965H320.179C320.653 310.965 321.041 311.375 321.041 311.88C321.041 312.382 320.653 312.792 320.179 312.792Z" fill="#80B2FF"/>
<path d="M334.454 312.792H323.631C323.157 312.792 322.769 312.382 322.769 311.88C322.769 311.375 323.157 310.965 323.631 310.965H334.454C334.928 310.965 335.316 311.375 335.316 311.88C335.316 312.382 334.928 312.792 334.454 312.792Z" fill="#80B2FF"/>
<path d="M329.897 334.756H320.09C318.699 334.756 317.572 333.56 317.572 332.088C317.572 330.613 318.699 329.417 320.09 329.417H329.897C331.288 329.417 332.415 330.613 332.415 332.088C332.415 333.56 331.288 334.756 329.897 334.756Z" fill="#1251B3"/>
<path d="M201.528 226.055C201.529 225.968 201.529 225.931 201.529 225.923C201.529 225.939 201.528 226.055 201.528 226.055Z" fill="#D9FFFF"/>
<path d="M201.528 226.055C201.529 225.968 201.529 225.931 201.529 225.923C201.529 225.939 201.528 226.055 201.528 226.055Z" fill="#D9FFFF"/>
<path d="M249.804 226.285C249.804 226.285 249.804 226.167 249.805 226.151C249.805 226.161 249.804 226.198 249.804 226.285Z" fill="#D9FFFF"/>
<path d="M249.804 226.285C249.804 226.285 249.804 226.167 249.805 226.151C249.805 226.161 249.804 226.198 249.804 226.285Z" fill="#D9FFFF"/>
<path d="M225.765 212.222C220.139 218.614 211.162 223.851 201.556 226.082C201.553 226.764 201.537 230.534 201.464 247.909C201.366 271.088 222.166 282.414 225.395 284.152C228.524 282.625 249.586 271.316 249.683 248.138C249.756 230.762 249.772 226.991 249.775 226.312C240.188 223.989 231.336 218.667 225.765 212.222" fill="white"/>
<path d="M225.707 216.411C220.198 221.772 212.566 225.984 204.173 228.28L204.091 247.918C204.053 256.904 207.419 265.034 214.095 272.082C218.482 276.712 223.095 279.585 225.435 280.875C225.536 280.822 225.647 280.759 225.755 280.7V216.456C225.739 216.442 225.723 216.427 225.707 216.411Z" fill="#296ACC"/>
<path d="M225.755 216.456V280.7C228.189 279.357 232.612 276.582 236.849 272.19C243.584 265.205 247.019 257.108 247.056 248.123L247.139 228.484C238.79 226.116 231.215 221.846 225.755 216.456" fill="#2E77E6"/>
<path d="M226.742 252.843V257.156C226.742 257.729 226.301 258.206 225.76 258.206C225.209 258.206 224.769 257.729 224.769 257.156V252.834C223.933 252.433 223.346 251.538 223.346 250.507C223.346 249.095 224.429 247.956 225.76 247.956C227.091 247.956 228.165 249.095 228.165 250.507C228.165 251.547 227.586 252.443 226.742 252.843ZM216.004 244.763V259.978C216.004 261.672 235.507 261.672 235.507 259.978V244.763H216.004Z" fill="white"/>
<path d="M233.8 243.679H231.825V242.654C231.825 239.105 229.102 236.217 225.756 236.217C222.409 236.217 219.686 239.105 219.686 242.654V243.679H217.712V242.654C217.712 237.951 221.32 234.123 225.756 234.123C230.191 234.123 233.8 237.951 233.8 242.654V243.679Z" fill="white"/>
<path d="M370.124 133.64H334.893V87.0001H370.124V133.64Z" fill="#296ACC"/>
<path d="M374.694 138.456H339.462V91.8165H374.694V138.456Z" fill="white"/>
<path d="M374.694 138.456H339.462V91.8165H374.694V138.456Z" stroke="#5896FA" stroke-width="8.45409" stroke-miterlimit="10"/>
<path d="M380.494 143.185H345.265V96.5455H380.494V143.185Z" fill="white"/>
<path d="M380.494 143.185H345.265V96.5455H380.494V143.185Z" stroke="#5896FA" stroke-width="8.45409" stroke-miterlimit="10"/>
<path d="M384.716 148H349.486V101.362H384.716V148Z" fill="#5896FA"/>
<path d="M379.235 112.053H361.012V109.019H379.235V112.053Z" fill="#005CEA"/>
<path d="M379.235 119.179H355.622V116.145H379.235V119.179Z" fill="#005CEA"/>
<path d="M379.235 126.305H355.622V123.271H379.235V126.305Z" fill="#005CEA"/>
<path d="M379.235 133.432H355.622V130.398H379.235V133.432Z" fill="#005CEA"/>
<path d="M379.235 140.558H355.622V137.526H379.235V140.558Z" fill="#005CEA"/>
<path d="M251.183 149.067C245.292 145.3 243.4 137.194 246.952 130.948C250.499 124.709 258.141 122.702 264.031 126.47C269.912 130.231 271.805 138.337 268.258 144.574C264.706 150.82 257.064 152.829 251.183 149.067ZM277.236 150.316C278.849 147.478 279.858 144.411 280.285 141.316L281.212 141.461L283.042 141.746L283.066 141.748C283.56 138.207 283.392 134.626 282.585 131.205L279.862 131.92C279.132 128.823 277.845 125.874 276.01 123.274L278.267 121.495C276.336 118.714 273.858 116.285 270.899 114.392L269.445 116.949C266.76 115.232 263.878 114.168 260.96 113.714L261.367 110.765C258.028 110.241 254.646 110.429 251.425 111.275L252.099 114.164C249.18 114.938 246.399 116.303 243.948 118.249L242.27 115.855C239.649 117.903 237.357 120.532 235.573 123.67L237.984 125.212C236.365 128.059 235.361 131.117 234.934 134.211L232.967 133.903L232.163 133.785L232.153 133.779C231.659 137.32 231.837 140.908 232.634 144.322L235.357 143.608C236.088 146.704 237.384 149.66 239.218 152.258L236.961 154.039C238.892 156.817 241.362 159.242 244.321 161.135L245.775 158.579C248.46 160.295 251.351 161.365 254.269 161.819L253.949 164.11L253.862 164.768C257.201 165.291 260.574 165.098 263.794 164.252L263.12 161.363C266.039 160.59 268.826 159.215 271.286 157.275L272.963 159.669C275.576 157.615 277.862 154.995 279.647 151.857L277.236 150.316" fill="#005CEA"/>
<path d="M224.22 161.422C221.2 163.542 217.138 162.665 215.139 159.462C213.144 156.263 213.971 151.955 216.991 149.836C220.007 147.719 224.068 148.597 226.064 151.794C228.062 154.998 227.236 159.305 224.22 161.422V161.422ZM230.667 148.563C229.759 147.108 228.612 145.909 227.321 144.993L227.595 144.558L228.136 143.699L228.143 143.688C226.666 142.639 225.023 141.914 223.306 141.547L223.012 143.083C221.458 142.751 219.845 142.733 218.265 143.071L217.977 141.531C216.294 141.877 214.644 142.578 213.127 143.642L213.945 144.954C212.568 145.92 211.44 147.134 210.577 148.503L209.347 147.631C208.357 149.196 207.678 150.945 207.329 152.76L208.776 153.072C208.464 154.72 208.448 156.432 208.766 158.107L207.314 158.411C207.64 160.196 208.301 161.948 209.305 163.556L210.541 162.688C211.452 164.149 212.596 165.345 213.887 166.26L213.305 167.183L213.07 167.562L213.065 167.566C214.541 168.615 216.19 169.335 217.902 169.705L218.196 168.171C219.749 168.501 221.367 168.515 222.947 168.177L223.235 169.718C224.918 169.373 226.564 168.676 228.081 167.609L227.263 166.299C228.639 165.333 229.772 164.116 230.635 162.747L231.59 163.427L231.865 163.619C232.855 162.052 233.53 160.308 233.879 158.492L232.431 158.18C232.743 156.532 232.757 154.816 232.443 153.137L233.895 152.832C233.565 151.051 232.907 149.306 231.903 147.697L230.667 148.563" fill="#1251B3"/>
<path d="M434.174 175.382H403.924C403.287 175.382 402.77 174.834 402.77 174.158V155.955C402.77 155.28 403.287 154.734 403.924 154.734H434.174C434.811 154.734 435.328 155.28 435.328 155.955V174.158C435.328 174.834 434.811 175.382 434.174 175.382Z" fill="#005CEA"/>
<path d="M435.328 162.196H402.77V158.634H435.328V162.196Z" fill="#5896FA"/>
<path d="M410.228 171.421H405.442C405.136 171.421 404.89 171.682 404.89 172.004C404.89 172.328 405.136 172.589 405.442 172.589H410.228C410.532 172.589 410.78 172.328 410.78 172.004C410.78 171.682 410.532 171.421 410.228 171.421Z" fill="#D1F5FF"/>
<path d="M417.59 171.421H412.802C412.498 171.421 412.252 171.682 412.252 172.004C412.252 172.328 412.498 172.589 412.802 172.589H417.59C417.894 172.589 418.14 172.328 418.14 172.004C418.14 171.682 417.894 171.421 417.59 171.421Z" fill="#D1F5FF"/>
<path d="M424.952 171.421H420.163C419.86 171.421 419.614 171.682 419.614 172.004C419.614 172.328 419.86 172.589 420.163 172.589H424.952C425.255 172.589 425.501 172.328 425.501 172.004C425.501 171.682 425.255 171.421 424.952 171.421Z" fill="#D1F5FF"/>
<path d="M432.311 171.421H427.525C427.222 171.421 426.973 171.682 426.973 172.004C426.973 172.328 427.222 172.589 427.525 172.589H432.311C432.617 172.589 432.863 172.328 432.863 172.004C432.863 171.682 432.617 171.421 432.311 171.421Z" fill="#D1F5FF"/>
<path d="M405.221 155.78C404.884 155.78 404.612 156.069 404.612 156.426V156.652C404.612 157.007 404.884 157.298 405.221 157.298C405.557 157.298 405.829 157.007 405.829 156.652V156.426C405.829 156.069 405.557 155.78 405.221 155.78Z" fill="#D1F5FF"/>
<path d="M406.531 156.538C406.531 156.958 406.851 157.298 407.245 157.298H409.78C410.174 157.298 410.495 156.958 410.495 156.538C410.495 156.12 410.174 155.78 409.78 155.78H407.245C406.851 155.78 406.531 156.12 406.531 156.538Z" fill="#D1F5FF"/>
<path d="M406.199 164.112H409.471C409.995 164.112 410.42 164.564 410.42 165.12V168.112C410.42 168.668 409.995 169.12 409.471 169.12H406.199C405.673 169.12 405.249 168.668 405.249 168.112V165.12C405.249 164.564 405.673 164.112 406.199 164.112Z" fill="#5896FA"/>
<path d="M422.193 227.981V225.622C422.193 224.55 421.374 223.682 420.365 223.682H400.898C399.889 223.682 399.069 224.55 399.069 225.622V267.317H449.423V227.981H422.193Z" fill="#1251B3"/>
<path d="M451.518 229.414H402.141L399.071 267.317H449.177L451.518 229.414" fill="white"/>
<path d="M449.423 267.317H399.071L404.412 229.886C404.57 228.79 405.457 227.981 406.501 227.981H452.582C453.875 227.981 454.863 229.2 454.671 230.555L449.423 267.317Z" fill="#3383FF"/>
<path d="M466.232 229.414C466.232 236.171 461.068 241.65 454.695 241.65C448.324 241.65 443.158 236.171 443.158 229.414C443.158 222.655 448.324 217.176 454.695 217.176C461.068 217.176 466.232 222.655 466.232 229.414" fill="#005CEA"/>
<path d="M454.695 217.625C448.564 217.625 443.58 222.913 443.58 229.413C443.58 235.914 448.564 241.203 454.695 241.203C460.825 241.203 465.809 235.914 465.809 229.413C465.809 222.913 460.825 217.625 454.695 217.625ZM454.695 242.098C448.099 242.098 442.734 236.407 442.734 229.413C442.734 222.42 448.099 216.731 454.695 216.731C461.29 216.731 466.656 222.42 466.656 229.413C466.656 236.407 461.29 242.098 454.695 242.098Z" fill="white"/>
<path d="M455.258 231.8V234.257C455.258 234.583 455.006 234.856 454.699 234.856C454.384 234.856 454.134 234.583 454.134 234.257V231.795C453.658 231.569 453.323 231.058 453.323 230.471C453.323 229.666 453.939 229.018 454.699 229.018C455.456 229.018 456.067 229.666 456.067 230.471C456.067 231.064 455.737 231.575 455.258 231.8V231.8ZM449.142 227.2V235.863C449.142 236.827 460.248 236.827 460.248 235.863V227.2H449.142Z" fill="white"/>
<path d="M459.275 226.583H458.152V226C458.152 223.977 456.602 222.334 454.695 222.334C452.789 222.334 451.238 223.977 451.238 226V226.583H450.114V226C450.114 223.319 452.169 221.14 454.695 221.14C457.222 221.14 459.275 223.319 459.275 226V226.583" fill="white"/>
<path d="M419.049 127.01C419.049 129.598 417.071 131.695 414.633 131.695C412.193 131.695 410.215 129.598 410.215 127.01C410.215 124.424 412.193 122.327 414.633 122.327C417.071 122.327 419.049 124.424 419.049 127.01Z" fill="#AAE0FF"/>
<path d="M303.063 144.491C303.063 147.079 301.085 149.176 298.646 149.176C296.207 149.176 294.229 147.079 294.229 144.491C294.229 141.905 296.207 139.808 298.646 139.808C301.085 139.808 303.063 141.905 303.063 144.491Z" fill="#AAE0FF"/>
<path d="M447.916 206.864C447.916 208.217 446.881 209.312 445.606 209.312C444.33 209.312 443.295 208.217 443.295 206.864C443.295 205.509 444.33 204.413 445.606 204.413C446.881 204.413 447.916 205.509 447.916 206.864Z" fill="white"/>
<path d="M206.085 211.458C206.085 212.811 205.051 213.909 203.774 213.909C202.498 213.909 201.464 212.811 201.464 211.458C201.464 210.106 202.498 209.008 203.774 209.008C205.051 209.008 206.085 210.106 206.085 211.458Z" fill="#AAE0FF"/>
<path d="M244.341 300.767C244.341 303.353 242.363 305.451 239.924 305.451C237.484 305.451 235.507 303.353 235.507 300.767C235.507 298.179 237.484 296.082 239.924 296.082C242.363 296.082 244.341 298.179 244.341 300.767Z" fill="#AAE0FF"/>
<path d="M310.804 97.9868C310.381 97.9868 310.038 97.6236 310.038 97.1758V88.4865C310.038 88.0368 310.381 87.6735 310.804 87.6735C311.226 87.6735 311.569 88.0368 311.569 88.4865V97.1758C311.569 97.6236 311.226 97.9868 310.804 97.9868Z" fill="#AAE0FF"/>
<path d="M305.942 92.8304C305.942 92.3828 306.284 92.0197 306.707 92.0197H314.901C315.323 92.0197 315.666 92.3828 315.666 92.8304C315.666 93.2779 315.323 93.6411 314.901 93.6411H306.707C306.284 93.6411 305.942 93.2779 305.942 92.8304Z" fill="#AAE0FF"/>
<path d="M397.91 209.569C397.486 209.569 397.143 209.204 397.143 208.756V200.067C397.143 199.619 397.486 199.256 397.91 199.256C398.332 199.256 398.675 199.619 398.675 200.067V208.756C398.675 209.204 398.332 209.569 397.91 209.569Z" fill="white"/>
<path d="M393.048 204.413C393.048 203.963 393.39 203.6 393.812 203.6H402.005C402.428 203.6 402.77 203.963 402.77 204.413C402.77 204.86 402.428 205.224 402.005 205.224H393.812C393.39 205.224 393.048 204.86 393.048 204.413Z" fill="white"/>
<path d="M389.578 324.023C389.156 324.023 388.813 323.66 388.813 323.212V314.523C388.813 314.075 389.156 313.71 389.578 313.71C390.002 313.71 390.344 314.075 390.344 314.523V323.212C390.344 323.66 390.002 324.023 389.578 324.023Z" fill="white"/>
<path d="M384.716 318.867C384.716 318.419 385.058 318.056 385.482 318.056H393.675C394.097 318.056 394.44 318.419 394.44 318.867C394.44 319.317 394.097 319.68 393.675 319.68H385.482C385.058 319.68 384.716 319.317 384.716 318.867Z" fill="white"/>
<path d="M323.833 259.16C323.833 260.596 322.736 261.758 321.384 261.758C320.03 261.758 318.934 260.596 318.934 259.16C318.934 257.727 320.03 256.562 321.384 256.562C322.736 256.562 323.833 257.727 323.833 259.16Z" stroke="white" stroke-width="5.63423" stroke-miterlimit="10"/>
<path d="M381.594 497.166H372.007L371.015 475.058H382.585L381.594 497.166Z" fill="#0E0E0E"/>
<path d="M548.209 497.166H538.621L537.629 475.058H549.199L548.209 497.166" fill="#0E0E0E"/>
<path d="M539.851 436.69C538.794 440.166 537.642 443.734 536.381 447.394H377.232C377.232 447.394 356.693 358.732 377.232 342.517C377.758 342.103 378.387 341.695 379.122 341.294C406.784 326.221 517.692 322.68 540.208 342.074C540.38 342.219 540.54 342.368 540.693 342.517C548.99 350.594 556.204 382.838 539.851 436.69" fill="#EA7B00"/>
<path d="M437.235 447.394H377.267L383.116 385.253C393.572 390.064 421.411 415.472 437.235 447.394Z" fill="#982C20"/>
<path d="M539.851 436.69C538.794 440.166 537.642 443.734 536.381 447.394H478.578C488.519 427.842 512.622 398.223 536.029 384.591L539.851 436.69Z" fill="#982C20"/>
<path d="M559.792 384.383H537.727C534.019 384.383 530.884 387.297 530.397 391.197L523.361 447.629H394.405L387.369 391.197C386.882 387.297 383.748 384.383 380.039 384.383H357.974C353.369 384.383 349.887 388.795 350.694 393.602L362.944 487.581H375.062H554.432H554.821L567.072 393.602C567.88 388.795 564.397 384.383 559.792 384.383Z" fill="#EA7B00"/>
<path d="M522.074 416.805C532.458 420.491 530.434 443.808 522.074 447.392H396.11C386.703 444.817 385.908 413.976 399.475 416.295C482.507 432.852 486.528 406.439 522.074 416.805Z" fill="#F2B066"/>
<path d="M426.066 393.171C426.027 399.191 426.333 404.859 426.944 409.823H486.008L489.506 348.656C485.997 326.315 476.393 320.901 461.19 320.901C447.585 320.901 438.523 332.671 433.017 348.428C428.257 362.042 426.151 378.628 426.066 393.171" fill="#007880"/>
<path d="M426.066 394.353L447.44 392.988C435.574 388.868 434.629 369.551 446.692 357.533L433.017 348.428C428.256 362.042 426.151 379.807 426.066 394.353" fill="#005459"/>
<path d="M421.999 422.46H503.148V393.172H430.049L421.999 422.46" fill="#0E0E0E"/>
<path d="M513.514 413.167L491.718 497.166H474.721C480.102 461.421 478.898 438.184 483.958 408.503C488.398 384.14 518.799 390.588 513.514 413.167" fill="#0E0E0E"/>
<path d="M485.614 497.166C485.614 497.111 485.61 497.056 485.61 496.999C485.61 490.772 490.37 485.725 496.241 485.725C502.113 485.725 506.871 490.772 506.871 496.999C506.871 497.056 506.869 497.111 506.867 497.166H485.614" fill="#B15626"/>
<path d="M498.289 485.935L494.425 484.682C491.875 479.361 480.996 480.019 482.512 486.497C478.243 487.17 475.999 484.916 475.999 484.916L474.721 497.166H497.769L498.289 485.935" fill="#B15626"/>
<path d="M417.804 413.167L439.603 497.166H456.598C451.217 461.421 452.423 438.184 447.362 408.503C442.922 384.14 412.52 390.588 417.804 413.167Z" fill="#0E0E0E"/>
<path d="M445.707 497.166C445.707 497.111 445.711 497.056 445.711 496.999C445.711 490.772 440.951 485.725 435.08 485.725C429.208 485.725 424.448 490.772 424.448 496.999C424.448 497.056 424.452 497.111 424.454 497.166H445.707" fill="#B15626"/>
<path d="M433.03 485.935L436.894 484.682C439.445 479.361 450.323 480.019 448.808 486.497C453.076 487.17 455.322 484.916 455.322 484.916L456.598 497.166H433.55L433.03 485.935" fill="#B15626"/>
<path d="M452.088 322.866C460.061 327.998 461.196 343.234 457.109 349.304L434.363 367.275L457.522 379.923L453.76 392.988C453.76 392.988 429.586 390.9 417.755 378.028C406.394 365.669 434.091 329.364 452.088 322.866" fill="#007880"/>
<path d="M468.259 345.979C461.442 336.897 466.15 322.866 474.841 323.279C503.148 333.847 511.885 363.191 502.918 376.363C495.234 387.649 461.442 391.994 461.442 391.994V379.639L484.921 374.258C484.921 374.258 472.814 354.364 468.259 345.979Z" fill="#007880"/>
<path d="M443.456 388.86C443.017 384.723 445.3 379.548 451.171 378.419C461.427 376.444 465.139 382.412 466.11 386.677C466.361 387.788 465.408 388.964 464.528 388.86C463.647 388.758 463.029 388.23 462.877 387.384C462.695 386.364 462.186 385.104 461.086 384.446C462.147 386.649 461.705 388.86 458.816 388.86H443.456" fill="#F7A594"/>
<path d="M466.611 388.85L474.682 345.932H476.393C475.847 348.887 467.908 391.831 467.659 393.172C465.543 393.172 446.113 393.172 443.473 393.172L440.831 388.85H466.611" fill="#99C1FF"/>
<path d="M476.393 345.932H536.448L527.564 393.172H467.659L476.393 345.932Z" fill="white"/>
<path d="M458.883 325.942C458.883 330.825 472.686 334.065 477.198 328.932C477.881 328.161 478.35 327.206 478.531 326.036L481.131 313.667L464.645 307.075L464.154 308.691L458.883 325.942" fill="#F7A594"/>
<path d="M478.531 326.035L481.131 313.666L465.534 309.213C461.497 321.955 475.904 332.137 478.531 326.035" fill="#F4856D"/>
<path d="M463.426 302.323C462.558 314.48 471.618 325.186 479.218 325.73C486.819 326.272 497.284 317.268 498.152 305.111C499.02 292.954 491.949 282.474 482.36 281.704C472.771 280.934 464.295 290.165 463.426 302.323Z" fill="#F7A594"/>
<path d="M476.135 282.625C486.645 275.565 492.431 282.204 497.665 289.246C501.337 294.187 503.938 297.737 508.51 298.479C499.717 310.242 482.132 302.483 476.593 290.697C476.046 297.405 468.59 302.962 463.426 302.322C461.754 294.856 466.63 279.763 476.135 282.625" fill="#0E0E0E"/>
<path d="M460.857 302.483C460.857 305.164 462.906 307.335 465.432 307.335C467.959 307.335 470.007 305.164 470.007 302.483C470.007 299.803 467.959 297.631 465.432 297.631C462.906 297.631 460.857 299.803 460.857 302.483Z" fill="#F7A594"/>
</svg>
