<svg width="781" height="619" viewBox="0 0 781 619" fill="none" xmlns="http://www.w3.org/2000/svg">
<ellipse cx="375.081" cy="375" rx="195.081" ry="202.493" fill="#DFC0D1"/>
<path fill-rule="evenodd" clip-rule="evenodd" d="M534.726 240.617V120.042H533.659V240.617C533.659 248.751 533.7 256.662 533.742 264.382C534.08 327.591 534.349 377.966 510.756 433.008C501.206 455.288 483.685 473.359 456.494 494.149C447.833 500.771 432.697 507.104 415.095 511.671C397.506 516.234 377.516 519.017 359.181 518.581C303.269 517.25 261.85 495.16 243.297 464.42C220.436 426.543 219.895 390.527 219.895 361.726C219.895 347.401 223.746 326.4 232.99 305.455C242.233 284.513 256.849 263.666 278.351 249.6C315.816 225.09 374.031 224.087 418.207 241.115C434.688 247.469 453.152 262.855 467.499 284.065C481.84 305.265 492.037 332.239 492.037 361.726C492.037 371.357 484.475 377.097 474.901 379.442C465.332 381.787 454.002 380.656 446.939 376.732L446.421 377.665C453.765 381.744 465.38 382.873 475.155 380.478C484.925 378.085 493.104 372.087 493.104 361.726C493.104 331.993 482.824 304.815 468.383 283.466C453.948 262.128 435.326 246.57 418.591 240.119C374.186 223.003 315.592 223.961 277.767 248.708C256.046 262.917 241.314 283.952 232.014 305.025C222.715 326.095 218.828 347.241 218.828 361.726C218.828 390.546 219.359 426.823 242.384 464.971C261.183 496.12 303.008 518.311 359.155 519.648C377.606 520.087 397.696 517.287 415.362 512.704C433.016 508.123 448.314 501.747 457.142 494.996C484.38 474.172 502.077 455.964 511.737 433.428C535.423 378.17 535.151 327.567 534.81 264.385C534.769 256.66 534.726 248.748 534.726 240.617ZM354.605 293.455C377.631 293.071 393.381 298.443 404.62 306.456C415.866 314.472 422.647 325.17 427.673 335.535C432.677 345.854 435.714 360.033 436.395 374.095C437.076 388.164 435.394 402.036 431.029 411.753C427.697 419.17 421.224 430.938 409.275 440.848C397.335 450.753 379.901 458.827 354.595 458.827C334.025 458.827 321.877 452.517 313.452 443.536C306.726 436.366 302.357 427.49 297.985 418.61C296.851 416.306 295.717 414.002 294.541 411.727L293.593 412.216C294.746 414.448 295.866 416.723 296.991 419.009C301.368 427.907 305.827 436.968 312.673 444.266C321.325 453.488 333.767 459.894 354.595 459.894C380.15 459.894 397.826 451.732 409.956 441.67C422.077 431.616 428.634 419.689 432.003 412.19C436.465 402.259 438.146 388.197 437.46 374.044C436.775 359.886 433.718 345.554 428.633 335.07C423.572 324.629 416.692 313.751 405.24 305.586C393.781 297.418 377.796 292.002 354.586 292.388C335.915 292.7 321.845 301.325 311.858 311.955C301.878 322.576 295.956 335.214 293.554 343.631L294.581 343.924C296.943 335.647 302.789 323.166 312.635 312.685C322.474 302.214 336.286 293.76 354.605 293.455Z" fill="#DFC0D1"/>
<path d="M534.726 120.042H542.197V112.573H534.726V120.042ZM533.659 120.042V112.573H526.188V120.042H533.659ZM446.94 376.732L450.567 370.203L444.037 366.575L440.408 373.104L446.94 376.732ZM446.421 377.665L439.891 374.037L436.262 380.567L442.792 384.194L446.421 377.665ZM294.541 411.727L301.178 408.298L297.748 401.662L291.112 405.091L294.541 411.727ZM293.593 412.216L290.164 405.581L283.527 409.009L286.956 415.645L293.593 412.216ZM296.991 419.009L290.287 422.306L290.298 422.328L290.309 422.349L296.991 419.009ZM296.991 419.009L303.694 415.712L303.683 415.691L303.673 415.669L296.991 419.009ZM293.554 343.631L286.37 341.583L284.321 348.765L291.505 350.815L293.554 343.631ZM294.581 343.924L292.531 351.107L299.715 353.156L301.764 345.974L294.581 343.924ZM527.255 120.042V240.617H542.197V120.042H527.255ZM533.659 127.511H534.726V112.573H533.659V127.511ZM541.129 240.617V120.042H526.188V240.617H541.129ZM541.213 264.343C541.171 256.62 541.129 248.729 541.129 240.617H526.188C526.188 248.775 526.23 256.705 526.271 264.422L541.213 264.343ZM517.623 435.95C541.917 379.275 541.55 327.37 541.213 264.343L526.271 264.422C526.611 327.813 526.783 376.657 503.89 430.066L517.623 435.95ZM461.032 500.082C488.546 479.046 507.307 460.017 517.623 435.95L503.89 430.066C495.105 450.559 478.825 467.673 451.957 488.215L461.032 500.082ZM416.971 518.9C434.935 514.239 451.201 507.599 461.032 500.082L451.957 488.215C444.464 493.944 430.458 499.969 413.219 504.441L416.971 518.9ZM359.003 526.048C378.146 526.504 398.833 523.606 416.971 518.9L413.219 504.441C396.178 508.861 376.886 511.531 359.358 511.114L359.003 526.048ZM236.901 468.279C257.181 501.879 301.44 524.678 359.003 526.048L359.358 511.114C305.099 509.823 266.52 488.44 249.694 460.561L236.901 468.279ZM212.425 361.726C212.425 390.661 212.898 428.509 236.901 468.279L249.694 460.561C227.975 424.576 227.366 390.392 227.366 361.726H212.425ZM226.155 302.439C216.526 324.258 212.425 346.282 212.425 361.726H227.366C227.366 348.52 230.966 328.542 239.825 308.47L226.155 302.439ZM274.261 243.35C251.227 258.419 235.802 280.582 226.155 302.439L239.825 308.47C248.663 288.445 262.471 268.915 282.441 255.85L274.261 243.35ZM420.894 234.146C375.113 216.499 314.249 217.189 274.261 243.35L282.441 255.85C317.384 232.99 372.95 231.674 415.519 248.084L420.894 234.146ZM473.687 279.88C458.726 257.764 439.154 241.185 420.894 234.146L415.519 248.084C430.221 253.752 447.578 267.947 461.311 288.249L473.687 279.88ZM499.508 361.726C499.508 330.515 488.724 302.109 473.687 279.88L461.311 288.249C474.956 308.421 484.567 333.962 484.567 361.726H499.508ZM476.679 386.697C487.641 384.011 499.508 376.466 499.508 361.726H484.567C484.567 366.248 481.308 370.183 473.123 372.188L476.679 386.697ZM443.311 383.261C452.341 388.277 465.671 389.394 476.679 386.697L473.123 372.188C464.993 374.18 455.664 373.034 450.567 370.203L443.311 383.261ZM452.951 381.293L453.47 380.36L440.408 373.104L439.891 374.037L452.951 381.293ZM473.377 373.224C465.041 375.266 455.426 374.122 450.048 371.135L442.792 384.194C452.104 389.366 465.72 390.48 476.933 387.733L473.377 373.224ZM485.634 361.726C485.634 366.965 481.778 371.166 473.377 373.224L476.933 387.733C488.073 385.004 500.575 377.21 500.575 361.726H485.634ZM462.195 287.651C475.94 307.971 485.634 333.717 485.634 361.726H500.575C500.575 330.269 489.707 301.658 474.571 279.283L462.195 287.651ZM415.903 247.089C430.86 252.854 448.374 267.22 462.195 287.651L474.571 279.283C459.523 257.036 439.792 240.288 421.278 233.15L415.903 247.089ZM281.857 254.957C317.16 231.862 373.104 230.59 415.903 247.089L421.278 233.15C375.268 215.415 314.026 216.061 273.676 242.457L281.857 254.957ZM238.848 308.04C247.745 287.883 261.668 268.165 281.857 254.957L273.676 242.457C250.424 257.669 234.884 280.021 225.179 302.009L238.848 308.04ZM226.299 361.726C226.299 348.361 229.935 328.236 238.848 308.04L225.179 302.009C215.494 323.952 211.358 346.123 211.358 361.726H226.299ZM248.78 461.112C226.898 424.857 226.299 390.412 226.299 361.726H211.358C211.358 390.68 211.821 428.79 235.988 468.83L248.78 461.112ZM359.332 512.181C304.837 510.884 265.853 489.4 248.78 461.112L235.988 468.83C256.514 502.84 301.178 525.739 358.977 527.115L359.332 512.181ZM413.486 505.474C396.368 509.915 376.976 512.6 359.332 512.181L358.977 527.115C378.236 527.574 399.023 524.659 417.239 519.933L413.486 505.474ZM452.604 489.064C444.945 494.92 430.778 500.988 413.486 505.474L417.239 519.933C435.256 515.259 451.682 508.574 461.681 500.93L452.604 489.064ZM504.87 430.486C495.976 451.235 479.519 468.485 452.604 489.064L461.681 500.93C489.241 479.858 508.179 460.692 518.603 436.37L504.87 430.486ZM527.34 264.425C527.681 327.787 527.856 376.861 504.87 430.486L518.603 436.37C542.989 379.48 542.62 327.347 542.281 264.344L527.34 264.425ZM527.255 240.617C527.255 248.772 527.298 256.704 527.34 264.425L542.281 264.344C542.239 256.618 542.197 248.726 542.197 240.617H527.255ZM408.957 300.374C396.181 291.265 378.787 285.581 354.48 285.987L354.728 300.923C376.475 300.56 390.581 305.62 400.283 312.537L408.957 300.374ZM434.395 332.276C429.113 321.382 421.652 309.423 408.957 300.374L400.283 312.537C410.08 319.522 416.182 328.958 420.952 338.794L434.395 332.276ZM443.856 373.735C443.143 359 439.964 343.761 434.395 332.276L420.952 338.794C425.39 347.948 428.284 361.067 428.933 374.457L443.856 373.735ZM437.845 414.814C442.883 403.597 444.567 388.401 443.856 373.735L428.933 374.457C429.585 387.926 427.907 400.475 424.215 408.693L437.845 414.814ZM414.045 446.598C427.196 435.688 434.256 422.803 437.845 414.814L424.215 408.693C421.139 415.538 415.252 426.186 404.505 435.1L414.045 446.598ZM354.595 466.296C381.648 466.296 400.768 457.609 414.045 446.598L404.505 435.1C393.902 443.895 378.154 451.358 354.595 451.358V466.296ZM308.003 448.646C318.011 459.315 332.223 466.296 354.595 466.296V451.358C335.827 451.358 325.744 445.722 318.901 438.426L308.003 448.646ZM291.283 421.908C295.565 430.607 300.385 440.526 308.003 448.646L318.901 438.426C313.065 432.205 309.148 424.373 304.689 415.312L291.283 421.908ZM287.904 415.155C289.041 417.354 290.143 419.593 291.283 421.908L304.689 415.312C303.559 413.019 302.393 410.649 301.178 408.298L287.904 415.155ZM297.023 418.852L297.97 418.363L291.112 405.091L290.164 405.581L297.023 418.852ZM303.694 415.712C302.574 413.437 301.423 411.096 300.23 408.788L286.956 415.645C288.07 417.8 289.157 420.009 290.287 422.306L303.694 415.712ZM303.673 415.669V415.668L290.309 422.349V422.35L303.673 415.669ZM318.123 439.156C312.167 432.807 308.16 424.789 303.694 415.712L290.287 422.306C294.578 431.025 299.488 441.128 307.224 449.376L318.123 439.156ZM354.595 452.425C335.569 452.425 325.192 446.691 318.123 439.156L307.224 449.376C317.459 460.286 331.967 467.363 354.595 467.363V452.425ZM405.187 435.922C394.393 444.874 378.404 452.425 354.595 452.425V467.363C381.897 467.363 401.258 458.59 414.726 447.419L405.187 435.922ZM425.188 409.13C422.076 416.057 416.105 426.865 405.187 435.922L414.726 447.419C428.05 436.367 435.193 423.321 438.818 415.25L425.188 409.13ZM430 374.406C430.655 387.961 428.976 400.698 425.188 409.13L438.818 415.25C443.952 403.82 445.636 388.435 444.922 373.684L430 374.406ZM421.911 338.327C426.431 347.649 429.346 360.919 430 374.406L444.922 373.684C444.205 358.853 441.005 343.461 435.356 331.811L421.911 338.327ZM400.903 311.668C410.907 318.8 417.106 328.417 421.911 338.327L435.356 331.811C430.037 320.841 422.478 308.702 409.577 299.505L400.903 311.668ZM354.711 299.856C376.641 299.491 390.981 304.595 400.903 311.668L409.577 299.505C396.582 290.24 378.952 284.512 354.462 284.92L354.711 299.856ZM317.302 317.069C326.251 307.545 338.511 300.126 354.711 299.856L354.462 284.92C333.32 285.272 317.439 295.107 306.413 306.841L317.302 317.069ZM300.738 345.681C302.859 338.247 308.247 326.707 317.302 317.069L306.413 306.841C295.51 318.444 289.053 332.18 286.37 341.583L300.738 345.681ZM296.63 336.742L295.603 336.449L291.505 350.815L292.531 351.107L296.63 336.742ZM307.191 307.571C296.421 319.034 290.039 332.613 287.396 341.875L301.764 345.974C303.845 338.681 309.157 327.297 318.08 317.8L307.191 307.571ZM354.48 285.987C333.69 286.334 318.068 295.995 307.191 307.571L318.08 317.8C326.88 308.434 338.881 301.188 354.728 300.923L354.48 285.987Z" fill="#703757"/>
<path fill-rule="evenodd" clip-rule="evenodd" d="M533.125 118.975C553.164 118.975 569.411 102.732 569.411 82.6956C569.411 62.6591 553.164 46.4163 533.125 46.4163C513.085 46.4163 496.84 62.6591 496.84 82.6956C496.84 102.732 513.085 118.975 533.125 118.975ZM533.866 113.052C550.224 113.052 563.487 99.7923 563.487 83.436C563.487 67.0797 550.224 53.8202 533.866 53.8202C517.506 53.8202 504.244 67.0797 504.244 83.436C504.244 99.7923 517.506 113.052 533.866 113.052Z" fill="#343A5A"/>
<path d="M533.659 105.103C545.741 105.103 555.537 95.3099 555.537 83.229C555.537 71.1482 545.741 61.3547 533.659 61.3547C521.576 61.3547 511.781 71.1482 511.781 83.229C511.781 95.3099 521.576 105.103 533.659 105.103Z" fill="#343A5A"/>
<ellipse cx="290.919" cy="349.7" rx="20.0373" ry="6.28203" fill="#343A5A"/>
<ellipse cx="290.919" cy="404.144" rx="20.0373" ry="6.28203" fill="#343A5A"/>
</svg>
